<?xml version="1.0" encoding="utf-8"?>
<!-- Generator: Adobe Illustrator 24.3.0, SVG Export Plug-In . SVG Version: 6.00 Build 0)  -->
<svg version="1.1" id="レイヤー_1" xmlns="http://www.w3.org/2000/svg" xmlns:xlink="http://www.w3.org/1999/xlink" x="0px"
	 y="0px" viewBox="0 0 48 48" style="enable-background:new 0 0 48 48;" xml:space="preserve">
<style type="text/css">
	.st0{fill:none;stroke:#FFFFFF;stroke-miterlimit:10;}
	.st1{fill:none;stroke:#FFFFFF;stroke-linecap:round;stroke-miterlimit:10;}
	.st2{fill:#FFFFFF;}
</style>
<g>
	<g>
		<path class="st1" d="M11.3,35c0.6-13,11.4-23.3,24.5-23.3"/>
		<g>
			<path class="st2" d="M16.4,28.4c-0.2-0.2-0.5-0.1-0.7,0.1l-4.4,6.2l-3.8-6.7c-0.1-0.2-0.4-0.3-0.7-0.2c-0.2,0.1-0.3,0.4-0.2,0.7
				l4.2,7.3c0.1,0.1,0.2,0.2,0.4,0.3s0.3-0.1,0.4-0.2l4.9-6.9c0.1-0.1,0.1-0.2,0.1-0.3C16.6,28.7,16.6,28.5,16.4,28.4z"/>
		</g>
	</g>
</g>
</svg>
