<?xml version="1.0" encoding="utf-8"?>
<!-- Generator: Adobe Illustrator 24.3.0, SVG Export Plug-In . SVG Version: 6.00 Build 0)  -->
<svg version="1.1" id="レイヤー_1" xmlns="http://www.w3.org/2000/svg" xmlns:xlink="http://www.w3.org/1999/xlink" x="0px"
	 y="0px" viewBox="0 0 48 48" style="enable-background:new 0 0 48 48;" xml:space="preserve">
<style type="text/css">
	.st0{fill:none;stroke:#FFFFFF;stroke-miterlimit:10;}
	.st1{fill:none;stroke:#FFFFFF;stroke-linecap:round;stroke-miterlimit:10;}
	.st2{fill:#FFFFFF;}
</style>
<g>
	<g>
		<path class="st1" d="M12.3,11.7C25.4,11.7,36.1,22,36.7,35"/>
		<g>
			<path class="st2" d="M31.6,28.4c0.2-0.2,0.5-0.1,0.7,0.1l4.4,6.2l3.8-6.7c0.1-0.2,0.4-0.3,0.7-0.2c0.2,0.1,0.3,0.4,0.2,0.7
				l-4.2,7.3c-0.1,0.1-0.2,0.2-0.4,0.3s-0.3-0.1-0.4-0.2l-4.9-6.9c-0.1-0.1-0.1-0.2-0.1-0.3C31.4,28.7,31.4,28.5,31.6,28.4z"/>
		</g>
	</g>
</g>
</svg>
